<?xml version="1.0" standalone="no"?>
<!DOCTYPE svg PUBLIC "-//W3C//DTD SVG 20010904//EN"
 "http://www.w3.org/TR/2001/REC-SVG-20010904/DTD/svg10.dtd">
<svg version="1.0" xmlns="http://www.w3.org/2000/svg"
 width="500.000000pt" height="500.000000pt" viewBox="0 0 500.000000 500.000000"
 preserveAspectRatio="xMidYMid meet">
<metadata>
Created by potrace 1.14, written by Peter Selinger 2001-2017
</metadata>
<g transform="translate(0.000000,500.000000) scale(0.100000,-0.100000)"
fill="#000000" stroke="none">
<path d="M0 2500 l0 -2500 2500 0 2500 0 0 2500 0 2500 -2500 0 -2500 0 0
-2500z m2799 1766 c227 -50 417 -151 566 -300 107 -108 149 -189 143 -275 -5
-75 -38 -122 -103 -147 -70 -26 -152 -14 -340 50 -196 67 -294 86 -437 86
-249 0 -447 -88 -648 -290 -96 -95 -221 -260 -286 -377 -106 -189 -162 -474
-130 -661 74 -426 436 -717 961 -773 215 -22 422 9 790 119 230 70 313 74 414
23 87 -45 155 -163 155 -271 -1 -92 -34 -152 -148 -265 -103 -102 -156 -132
-370 -210 -286 -103 -659 -166 -860 -144 -513 55 -934 250 -1247 576 -346 361
-464 820 -354 1371 106 526 393 942 874 1267 193 130 330 187 556 231 92 18
362 12 464 -10z"/>
</g>
</svg>
